<?xml version="1.0" encoding="UTF-8"?>
<svg id="_レイヤー_2" data-name="レイヤー 2" xmlns="http://www.w3.org/2000/svg" viewBox="0 0 251.17 18">
  <g id="_レイヤー_1-2" data-name="レイヤー 1">
    <path d="m251.17,18h-2c-12.89,0-19.4-3.69-25.7-7.26-6.12-3.47-11.9-6.74-23.73-6.74s-17.61,3.27-23.73,6.74c-6.3,3.57-12.82,7.26-25.7,7.26s-19.4-3.69-25.7-7.26c-6.12-3.47-11.9-6.74-23.73-6.74s-17.61,3.27-23.73,6.74c-6.3,3.57-12.82,7.26-25.7,7.26s-19.4-3.69-25.7-7.26c-6.12-3.47-11.9-6.74-23.73-6.74H0V0h2c12.88,0,19.4,3.69,25.7,7.26,6.12,3.47,11.9,6.74,23.73,6.74s17.61-3.27,23.73-6.74c6.3-3.57,12.82-7.26,25.7-7.26s19.4,3.69,25.7,7.26c6.12,3.47,11.9,6.74,23.73,6.74s17.61-3.27,23.73-6.74c6.3-3.57,12.82-7.26,25.7-7.26s19.4,3.69,25.7,7.26c6.12,3.47,11.9,6.74,23.73,6.74h2v4Z"/>
  </g>
</svg>